<?xml version="1.0" encoding="utf-8"?>
<!-- Generator: Adobe Illustrator 27.5.0, SVG Export Plug-In . SVG Version: 6.00 Build 0)  -->
<svg version="1.1" xmlns="http://www.w3.org/2000/svg" xmlns:xlink="http://www.w3.org/1999/xlink" x="0px" y="0px"
	 viewBox="0 0 500 500" style="enable-background:new 0 0 500 500;" xml:space="preserve">
<g id="BACKGROUND">
	<rect style="fill:#B2DBED;" width="500" height="500"/>
</g>
<g id="OBJECTS">
	<g>
		<defs>
			<rect id="SVGID_1_" width="500" height="500"/>
		</defs>
		<clipPath id="SVGID_00000016762812267174301020000014163689013723131041_">
			<use xlink:href="#SVGID_1_"  style="overflow:visible;"/>
		</clipPath>
		<g style="clip-path:url(#SVGID_00000016762812267174301020000014163689013723131041_);">
			<g>
				<g>
					<path style="fill:#F7A577;" d="M505.908,365.307c-0.511-0.203-1.029-0.387-1.555-0.539c-2.029-0.585-11.42-6.618-13.994-8.559
						c-13.74-10.359-27.824-21.06-44.947-22.766c-3.136-0.313-8.08-0.103-8.848-1.022c-2.735-3.275-2.37-20.549-1.834-37.989
						c-11.736,1.024-24.266,1.677-25.21,2.391c3.9,20.629,6.841,37.853,12.967,46.045c1.652,2.209,3.544,3.374,6.382,3.948
						c15.107,3.054,39.782,10.14,53.949,16.209c3.77,1.615,7.533,3.355,10.783,5.857c3.079,2.371,5.356,5.444,7.588,8.586
						c2.159,3.04,3.3,6.71,4.059,9.959C513.152,383.177,507.048,373.722,505.908,365.307z"/>
					<path style="fill:#CD575F;" d="M516.813,374.489c-2.683-3.882-6.5-7.434-10.905-9.182c1.14,8.415,7.244,17.87-0.661,22.12
						c1.146,4.902,1.421,8.842,2.998,8.196c3.588-2.185,5.942-6.268,6.035-10.467c-2.412-4.12-2.656-7.897-3.836-12.522
						c2.13,0.774,3.121,1.673,5.691,3.502C516.134,376.135,516.788,375.28,516.813,374.489z"/>
					<path style="fill:#FEB788;" d="M484.714,409.686c2.481-6.744,4.929-12.341,8.669-17.62c-0.987-1.871-5.916-9.966-6.725-13.085
						c-4.321-16.656-9.182-33.563-20.069-46.889c-1.02-1.249-4.391-3.719-5.003-5.211c-0.455-1.108-0.626-2.308-0.793-3.494
						c-1.766-12.538-0.836-31.039-2.603-43.577c0.007,0.05-26.23,4.954-27.414,4.927c3.976,17.114,13.21,44.432,14.325,46.955
						c1.171,2.648,3.107,4.869,4.973,7.083c9.933,11.784,18.652,24.591,25.975,38.152c1.949,3.609,3.814,7.311,4.804,11.291
						c1.116,4.487,0.614,8.796,0.093,13.151c-0.326,2.727-1.443,5.513-2.609,7.993C480.997,409.747,483.81,412.144,484.714,409.686z
						"/>
					<path style="fill:#CD575F;" d="M493.383,392.067c-3.74,5.279-6.188,10.875-8.669,17.62c-0.904,2.458-3.716,0.061-6.377-0.323
						c-1.743,3.705-3.598,6.721-3.107,7.785c0.688,1.917,8.211,1.409,11.704-3.327c1.79-4.388,2.01-9.357,3.961-13.714
						c0.862,2.753,1.504,3.687,2.778,6.977c0.339,0.875,1.857,0.557,1.876-0.043c-1.462-5.935,0.316-10.27-2.165-14.973
						C493.384,392.069,493.383,392.068,493.383,392.067z"/>
					<path style="fill:#592C64;" d="M409.811,319.898c24.632,4.204,30.201,0.261,55.4-9.816c-5.388-26.469-1.857-43.335-8.33-69.08
						c-13.588,11.314-40.413,16.186-57.957,13.977C398.621,261.669,411.373,320.329,409.811,319.898z"/>
				</g>
				<g>
					<path style="fill:#FEB788;" d="M303.834,151.335c0.266-1.843,0.524-4.822,0.409-6.493c-3.121-1.553-2.949,6.256-3.694,6.266
						c-1.56-0.954-1.934-2.164-3.646-6.158c-0.498-1.162-1.437-6.607-2.879-5.758c-0.772,0.667,2.137,10.904,1.133,10.949
						c-1.796-1.695-6.672-10.702-8.52-9.223c-0.16,1.461,6.295,10.829,5.168,11.177c-1.206-0.085-9.593-6.596-10.898-4.232
						c0.776,1.288,9.378,6.232,9.844,7.242c-3.281-0.712-7.545-1.227-8.648-0.366c0.206,1.431,5.784,1.992,7.172,2.399
						c4.238,1.242,4.877,4.068,6.197,4.526c1.207,0.418,4.261,7.147,5.48,8.523c0.361,0.407,7.538-2.777,7.366-3.293
						c-0.916-2.749-2.985-4.784-4.188-10.217C303.633,154.436,303.571,153.158,303.834,151.335z"/>
					<path style="fill:#FEB788;" d="M511.522,139.01c-0.021-1.862,0.115-4.849,0.45-6.49c3.298-1.128,2.099,6.59,2.837,6.698
						c1.673-0.74,2.203-1.89,4.425-5.623c0.647-1.087,2.295-6.36,3.613-5.328c0.678,0.763-3.555,10.527-2.565,10.704
						c2.004-1.443,8.023-9.73,9.66-8.02c-0.034,1.469-7.667,9.905-6.596,10.399c1.206,0.074,10.378-5.275,11.36-2.759
						c-0.939,1.174-10.117,4.942-10.712,5.882c3.346-0.274,7.641-0.222,8.621,0.777c-0.393,1.392-5.996,1.213-7.426,1.433
						c-4.365,0.673-5.371,3.39-6.74,3.67c-1.251,0.256-5.166,6.523-6.555,7.727c-0.411,0.356-7.106-3.746-6.868-4.235
						c1.27-2.605,3.589-4.349,5.498-9.576C511.312,142.111,511.543,140.852,511.522,139.01z"/>
					<path style="fill:#CD575F;" d="M485.768,148.225c-4.951-6.476-16.617-2.319-22.429-8.035c-2.435-2.395-3.201-5.965-4.817-8.975
						c-4.48-8.348-16.612-11.38-24.492-6.12c-3.565,2.38-6.366,6.163-10.524,7.206c-6.485,1.627-11.585-5.667-17.677-8.422
						c-3.705-1.676-7.977-2.787-12.041-2.911c-3.748-0.115-7.069,1.574-7.069,1.574c-5.263-1.828-13.917,1.72-19.058,10.295
						c-2.946,4.913-3.62,11.797-0.261,16.625c1.004,1.443,3.182,2.23,3.704,3.908c0.768,2.471,0.432,4.44,0.368,7.027
						c-0.131,5.227,2.251,9.964,5.959,13.652c3.82,3.799,9.284,7.218,13.933,9.941c4.649,2.723,10.236,4.248,15.483,3.025
						c4.618-1.077,8.742-4.194,13.483-4.304c4.571-0.106,9.412,2.585,13.482,0.503c2.271-1.162,3.618-3.537,5.465-5.297
						c4.786-4.56,12.232-4.512,18.805-3.805c6.573,0.707,13.7,1.68,19.393-1.682c4.109-2.426,6.738-6.76,8.489-11.199
						C487.629,157.007,488.525,151.831,485.768,148.225z"/>
					<path style="fill:#E97A93;" d="M390.416,174.881c-1.816,0.67-7.559,3.625-7.867,5.226c-0.317,1.652,2.675,5.235,3.299,6.798
						c11.354,28.444,13.024,44.936,12.299,75.554c18.987,1.834,59.081-14.291,56.625-16.442
						c-10.524-9.217-13.655-21.071-16.818-34.698c-3.163-13.627-4.675-27.715-9.613-40.804c-0.492-1.303-5.629-5.314-6.619-6.294
						c-0.8-0.792-7.211-1.151-8.114-0.479c-5.019,3.737-10.622,7.935-12.727,9.76C398.724,175.37,390.416,174.881,390.416,174.881z"
						/>
					<path style="fill:#FFFFFF;" d="M334.891,192.55c-7.55-5.008-22.281-24.457-28.583-32.884
						c-3.108,2.43-10.065,4.662-10.928,5.636c4.731,8.172,24.912,40.569,33.251,44.419c5.621,2.595,4.427,1.059,10.614,0.827
						c12.177-0.456,24.303-2.269,36.081-5.395c5.411,14.305,6.453,29.839,7.19,45.115c0.885,18.324,1.016,38.092-9.424,53.177
						c7.004,4.232,15.822,4.568,23.785,2.678c7.963-1.891,15.274-5.807,22.465-9.714c1.018-0.553,2.077-1.144,2.712-2.113
						c0.728-1.111,0.773-2.521,0.769-3.849c-0.097-35.026-17.198-67.36-29.611-100.112c-1.4-3.693-2.796-15.453-2.796-15.453
						c-5.402,1.634-15.175,5.523-18.365,7.179C361.362,187.609,337.261,194.122,334.891,192.55z"/>
					<path style="fill:#FFFFFF;" d="M440.874,159.597c9.727,3.597,38.966,16.756,40.633,16.631
						c2.609-0.196,18.791-21.864,26.113-30.859c3.704,0.749,11.015,6.244,9.8,9.823c-1.215,3.579-27.89,36.875-29.052,37.879
						c-3.212,2.778-27.293-3.674-38.601-8.202c7.323,19.232,11.939,32.27,19.262,51.501c3.131,8.222,8.104,17.318,13.017,24.617
						c4.913,7.299,9.082,13.222,17.506,15.759c-4.389,9.919-32.778,19.882-51.098,14.646c-2.491-25.432-5.808-48.597-15.378-72.291
						c-4.276-10.588-8.469-14.732-11.987-30.223c-1.03-4.534-7.482-25.138-7.482-25.138
						C422.972,160.172,436.593,158.014,440.874,159.597z"/>
					<g>
						<path style="fill:#CAD6DD;" d="M333.978,195.377c-0.905,1.096-1.8,2.203-2.644,3.347c-0.814,1.103-1.864,2.307-2.247,3.634
							c-0.119,0.412,0.386,0.732,0.705,0.44c0.964-0.883,1.571-2.215,2.272-3.31c0.794-1.24,1.599-2.47,2.441-3.678
							C334.725,195.496,334.229,195.074,333.978,195.377L333.978,195.377z"/>
					</g>
					<g>
						<path style="fill:#CAD6DD;" d="M334.903,195.685c-0.924,2.756-1.82,5.922-1.412,8.849c0.045,0.325,0.578,0.336,0.647,0.02
							c0.632-2.867,0.742-5.779,1.541-8.629C335.821,195.421,335.07,195.189,334.903,195.685L334.903,195.685z"/>
					</g>
					<g>
						<path style="fill:#CAD6DD;" d="M375.798,202.501c-0.984-3.421-1.561-6.904-2.272-10.385c-0.047-0.229-0.427-0.197-0.416,0.043
							c0.167,3.585,1.065,7.066,2.157,10.471C375.372,202.962,375.896,202.843,375.798,202.501L375.798,202.501z"/>
					</g>
					<g>
						<path style="fill:#CAD6DD;" d="M369.155,196.101c1.145,1.805,2.034,3.802,3.266,5.544c0.201,0.284,0.743,0.157,0.622-0.24
							c-0.629-2.056-1.914-3.953-3.064-5.753C369.656,195.148,368.831,195.589,369.155,196.101L369.155,196.101z"/>
					</g>
					<g>
						<path style="fill:#CAD6DD;" d="M439.332,169.744c0.636,4.73,2.852,9.899,6.627,12.979c0.32,0.261,0.662-0.243,0.433-0.527
							c-3.177-3.934-5.535-7.52-6.573-12.57C439.752,169.305,439.29,169.431,439.332,169.744L439.332,169.744z"/>
					</g>
					<g>
						<path style="fill:#CAD6DD;" d="M439.751,181.664c1.526,1.226,3.678,2.51,5.714,2.375c0.447-0.03,0.54-0.588,0.127-0.764
							c-0.865-0.368-1.798-0.559-2.669-0.919c-0.953-0.393-1.817-0.928-2.633-1.553
							C439.767,180.402,439.251,181.262,439.751,181.664L439.751,181.664z"/>
					</g>
					<g>
						<path style="fill:#CAD6DD;" d="M481.23,179.142c-0.032,2.788,0.61,5.906,2.56,8.008c0.319,0.344,0.825-0.063,0.64-0.463
							c-1.15-2.499-2.291-4.734-2.576-7.525C481.816,178.775,481.235,178.727,481.23,179.142L481.23,179.142z"/>
					</g>
					<g>
						<path style="fill:#CAD6DD;" d="M483.231,179.632c0.342,2.266,1.407,4.516,3.341,5.833c0.344,0.234,0.722-0.253,0.453-0.551
							c-1.466-1.619-2.664-3.271-3.156-5.437C483.775,179.06,483.169,179.22,483.231,179.632L483.231,179.632z"/>
					</g>
					<g>
						<path style="fill:#D86C88;" d="M405.009,208.996c2.821,0.353,4.247-0.69,6.383-2.31c2.327-1.765,4.227-1.82,6.955-1.16
							c1.348,0.326,2.343,0.519,3.707,0.238c0.444-0.091,0.364-0.771-0.082-0.785c-2.651-0.088-5.815-1.518-8.441-0.727
							c-3.314,0.999-4.32,4.462-8.498,3.979C404.542,208.174,404.525,208.936,405.009,208.996L405.009,208.996z"/>
					</g>
					<g>
						<path style="fill:#D86C88;" d="M410.689,217.223c3.841,4.363,11.624,6.889,17.066,8.281c0.445,0.114,0.622-0.501,0.208-0.672
							c-5.425-2.246-12.564-3.811-16.842-8.015C410.849,216.549,410.436,216.936,410.689,217.223L410.689,217.223z"/>
					</g>
					<g>
						<path style="fill:#D86C88;" d="M417.152,231.958c3.247,2.238,7.483,4.015,11.5,3.498c0.515-0.066,0.354-0.79-0.088-0.847
							c-4.065-0.525-7.51-0.955-11.105-3.141C417.139,231.274,416.846,231.748,417.152,231.958L417.152,231.958z"/>
					</g>
				</g>
				<g>
					<path style="fill:#EFA075;" d="M413.608,163.741c0,0-3.961,0.818-4.393,0.508c-4.487-3.22-6.667-9.509-9.919-14.905
						c-2.62-4.347-9.901,3.77-11.256,9.219c-0.235,0.946-0.004,1.944,0.309,2.868c1.782,5.263,4.638,4.574,5.247,10.54
						c0.054,0.533-3.18,2.91-3.18,2.91c0.076,0.741,9.099,9.333,13.676,6.889C408.021,179.671,413.765,164.126,413.608,163.741z"/>
					<path style="fill:#FEB788;" d="M376.385,158.241c1.776,2.861,7.699,9.916,16.263,10.047c3.064,0.047,5.454-5.249,7.104-8.747
						c1.65-3.498,1.044-4.959,1.361-8.813c0.192-2.34,0.504-4.673,0.577-7.02c0.409-13.192-10.7-14.836-13.807-15.629
						C369.25,123.318,367.772,144.368,376.385,158.241z"/>
					<path style="fill:#CD575F;" d="M383.663,135.086c1.822,3.559,3.858,7.34,7.415,9.165c1.635,0.839,3.52,1.215,4.978,2.334
						c1.227,0.941,2.033,2.32,3.106,3.432c1.074,1.113,2.662,1.992,4.128,1.501c0.148-3.303,0.295-6.607,0.443-9.91
						c0.109-2.443,0.208-4.96-0.619-7.262c-1.453-4.045-5.47-6.609-9.511-8.074c-5.939-2.154-12.914-2.471-18.297,0.836
						c-3.898,2.395-9.193,13.323-5.519,17.924C373.299,149.43,382.072,139.301,383.663,135.086z"/>
					<path style="fill:#FEB788;" d="M400.989,143.737c-3.652-2.348-5.553,2.089-5.093,3.787c0,0,1.419,5.193,2.729,6.096
						c1.309,0.903,2.283,0.435,3.476-2.009C402.573,150.643,403.142,145.122,400.989,143.737z"/>
					<g>
						<path style="fill:#592C64;" d="M376.652,151.666c-0.386,0.447-0.19,0.903-0.006,1.388c0.226,0.594,0.458,1.445,1.147,1.628
							c0.331,0.088,0.727-0.027,0.907-0.337c0.434-0.749-0.149-1.601-0.61-2.201C377.78,151.742,377.141,151.1,376.652,151.666
							L376.652,151.666z"/>
					</g>
					<g>
						<path style="fill:#592C64;" d="M384.501,148.375c-0.386,0.447-0.19,0.903-0.005,1.388c0.226,0.594,0.458,1.445,1.147,1.629
							c0.331,0.088,0.727-0.027,0.907-0.337c0.434-0.749-0.149-1.601-0.61-2.201C385.63,148.451,384.991,147.809,384.501,148.375
							L384.501,148.375z"/>
					</g>
					<g>
						<path style="fill:#CD575F;" d="M374.18,148.623c0.073-0.623,0.625-1.164,1.138-1.464c0.859-0.502,1.568-0.237,2.478-0.139
							c0.483,0.052,0.564-0.58,0.25-0.822c-1.72-1.331-4.62,0.347-4.71,2.399C373.312,149.147,374.117,149.155,374.18,148.623
							L374.18,148.623z"/>
					</g>
					<g>
						<path style="fill:#CD575F;" d="M382.041,144.95c0.073-0.623,0.626-1.164,1.138-1.464c0.859-0.502,1.568-0.237,2.478-0.139
							c0.483,0.052,0.564-0.58,0.25-0.823c-1.72-1.33-4.62,0.347-4.71,2.399C381.173,145.474,381.979,145.482,382.041,144.95
							L382.041,144.95z"/>
					</g>
					<g>
						<path style="fill:#E5906A;" d="M380.867,151.247c0.003,0.992,0.558,1.952,1.048,2.789c0.89,1.521,1.182,2.939,0.433,4.601
							c-0.151,0.335,0.235,0.607,0.526,0.559c0.92-0.151,1.861-0.166,2.739-0.481c0.373-0.134,0.319-0.62-0.071-0.678
							c-0.969-0.144-1.923,0.11-2.877,0.301c0.175,0.186,0.351,0.373,0.526,0.559c1-2.599,0.045-5.621-1.458-7.856
							C381.496,150.689,380.866,150.753,380.867,151.247L380.867,151.247z"/>
					</g>
					<g>
						<path style="fill:#E5906A;" d="M398.03,147.976c-0.071-0.685,0.443-2.115,1.113-2.402c0.843-0.362,1.207,0.743,1.317,1.389
							c0.183,1.078,0.17,3.088-0.768,3.854c-0.488,0.399,0.22,1.167,0.674,0.717c1.337-1.324,1.522-4.693,0.414-6.184
							c-1.66-2.234-3.862,0.904-3.313,2.762C397.577,148.479,398.068,148.337,398.03,147.976L398.03,147.976z"/>
					</g>
					<g>
						<path style="fill:#592C64;" d="M391.691,160.892c0.011,0.931-0.216,1.834-0.954,2.382c-0.85,0.634-1.972,0.37-2.986-0.162
							c-1.418-0.744-2.64-2.002-2.64-2.002s4.407-1.806,5.803-3.584C390.914,157.527,391.681,159.251,391.691,160.892z"/>
						<path style="fill:#CD575F;" d="M391.691,160.892c0.011,0.931-0.216,1.834-0.954,2.382c-0.85,0.634-1.972,0.37-2.986-0.162
							C388.487,161.954,389.701,160.861,391.691,160.892z"/>
					</g>
					<g>
						<path style="fill:#E06873;" d="M393.694,128.512c8.214-0.509,12.637,3.368,18.652,8.283c2.924,2.389,6.236,3.98,10.038,4.262
							c2.807,0.208,5.263-0.244,7.643-1.735c3.175-1.989,5.316-4,9.29-3.913c4.027,0.088,7.037,2.022,9.706,4.878
							c0.276,0.296,0.825-0.07,0.59-0.427c-2.247-3.414-6.215-5.253-10.269-5.342c-5.608-0.122-7.889,4.196-12.839,5.403
							c-7.727,1.885-12.992-3.754-18.474-8.049c-4.199-3.29-9.064-4.955-14.384-3.807
							C393.404,128.118,393.434,128.528,393.694,128.512L393.694,128.512z"/>
					</g>
					<g>
						<path style="fill:#E06873;" d="M395.45,135.732c6.116,0.927,9.194,4.097,13.29,8.242c1.9,1.923,4.21,2.968,6.709,3.955
							c2.714,1.072,5.474,1.983,8.428,1.714c5.523-0.503,9.506-4.599,15.395-2.961c0.505,0.14,0.697-0.562,0.235-0.762
							c-2.892-1.248-5.357-0.726-8.273,0.239c-3.132,1.037-5.695,2.688-9.13,2.559c-2.728-0.102-5.479-1.254-7.944-2.343
							c-4.34-1.917-6.286-5.745-10.09-8.267c-2.626-1.741-5.496-2.54-8.605-2.828C395.168,135.252,395.169,135.69,395.45,135.732
							L395.45,135.732z"/>
					</g>
					<g>
						<path style="fill:#E06873;" d="M409.109,152.801c5.357,4.182,13.582,5.893,19.654,2.154c0.386-0.238,0.179-0.929-0.301-0.781
							c-6.753,2.091-12.968,2.354-19.029-1.889C409.106,152.055,408.806,152.564,409.109,152.801L409.109,152.801z"/>
					</g>
					<g>
						<path style="fill:#E06873;" d="M454.785,145.196c3.729,6.308,11.971,10.345,19.239,8.485c0.426-0.109,0.389-0.831-0.083-0.801
							c-7.609,0.492-13.942-1.868-18.565-8.111C455.127,144.433,454.575,144.841,454.785,145.196L454.785,145.196z"/>
					</g>
					<g>
						<path style="fill:#E06873;" d="M452.01,152.707c3.839,5.975,10.656,10.411,17.946,10.133c0.443-0.017,0.462-0.642,0.021-0.687
							c-7.213-0.737-13.351-3.542-17.514-9.693C452.28,152.19,451.828,152.425,452.01,152.707L452.01,152.707z"/>
					</g>
					<g>
						<path style="fill:#E06873;" d="M369.843,143.136c3.973,0.32,7.271-4.791,8.27-8.087c0.109-0.359-0.41-0.611-0.606-0.278
							c-1.677,2.855-3.67,7.914-7.649,7.864C369.535,142.632,369.523,143.11,369.843,143.136L369.843,143.136z"/>
					</g>
					<g>
						<path style="fill:#E06873;" d="M369.37,139.658c1.899-3.501,4.528-5.904,7.649-8.281c0.22-0.167-0.044-0.488-0.272-0.377
							c-3.447,1.685-6.138,5.004-7.787,8.4C368.826,139.676,369.22,139.936,369.37,139.658L369.37,139.658z"/>
					</g>
					<g>
						<path style="fill:#E06873;" d="M368.295,136.375c1.315-2.026,2.671-4.053,4.43-5.727c1.842-1.753,3.822-2.602,6.201-3.389
							c0.219-0.073,0.218-0.438-0.045-0.431c-5.126,0.14-8.549,5.473-10.891,9.356C367.871,136.382,368.169,136.569,368.295,136.375
							L368.295,136.375z"/>
					</g>
					<g>
						<path style="fill:#E06873;" d="M386.013,134.191c1.404,2.524,3.642,5.047,6.499,5.889c0.337,0.099,0.535-0.355,0.252-0.549
							c-2.396-1.65-4.603-3.134-6.215-5.63C386.338,133.574,385.819,133.843,386.013,134.191L386.013,134.191z"/>
					</g>
					<g>
						<path style="fill:#E06873;" d="M386.081,130.628c0.57,0.42,1.135,0.847,1.711,1.259c0.517,0.369,1.041,0.83,1.643,1.04
							c0.348,0.121,0.576-0.322,0.36-0.577c-0.411-0.483-1.043-0.806-1.57-1.153c-0.59-0.388-1.191-0.76-1.787-1.138
							C386.068,129.824,385.737,130.375,386.081,130.628L386.081,130.628z"/>
					</g>
					<g>
						<path style="fill:#E06873;" d="M387.083,127.365c0.62,0.177,1.223,0.396,1.8,0.688c0.499,0.252,0.953,0.605,1.488,0.776
							c0.357,0.114,0.591-0.324,0.368-0.59c-0.763-0.907-2.331-1.322-3.439-1.576C386.844,126.559,386.624,127.234,387.083,127.365
							L387.083,127.365z"/>
					</g>
					<g>
						<path style="fill:#E06873;" d="M373.533,159.648c-0.439,5.116,2.477,10.297,6.601,13.246c0.262,0.187,0.574-0.204,0.354-0.431
							c-3.451-3.572-6.513-7.551-6.268-12.794C374.241,159.225,373.57,159.21,373.533,159.648L373.533,159.648z"/>
					</g>
					<g>
						<path style="fill:#E06873;" d="M378.469,164.604c0.695,1.372,1.523,2.638,2.534,3.798c0.892,1.024,1.932,2.208,3.217,2.722
							c0.26,0.104,0.41-0.241,0.264-0.423c-0.842-1.05-2.022-1.811-2.931-2.816c-0.984-1.089-1.838-2.29-2.576-3.557
							C378.789,164.007,378.3,164.271,378.469,164.604L378.469,164.604z"/>
					</g>
					<g>
						<path style="fill:#E06873;" d="M436.539,129.891c7.849-3.471,14.56-0.256,19.278,6.201c0.217,0.297,0.618-0.06,0.49-0.354
							c-3.357-7.667-12.952-9.631-19.984-6.244C436.058,129.62,436.275,130.007,436.539,129.891L436.539,129.891z"/>
					</g>
				</g>
			</g>
			<g>
				<g>
					<path style="fill:#592C64;" d="M-10.838,466.391c0,0-11.371,5.57-14.389,6.963c-3.017,1.392-0.232,10.444,1.856,16.014
						c2.089,5.57,5.918,14.273,8.703,19.147c2.785,4.874,8.007,1.741,6.266-4.874c-1.741-6.614-3.829-17.406-3.133-19.147
						c0.696-1.741,8.355-5.765,8.355-5.765L-10.838,466.391z"/>
					<path style="fill:#592C64;" d="M138.777,507.51c0,0-2.291,12.453-2.968,15.707c-0.677,3.254,8.255,6.402,13.974,8.038
						c5.719,1.636,14.992,3.738,20.566,4.4c5.574,0.662,6.164-5.399-0.188-7.936c-6.351-2.538-16.267-7.281-17.252-8.877
						c-0.984-1.595,0.339-10.145,0.339-10.145L138.777,507.51z"/>
					<path style="fill:#D8DBAF;" d="M66.794,378.691c0.914,0.537,21.54,7.717,42.95,3.54c21.41-4.178,20.757-11.358,20.757-11.358
						l-34.726-22.715L66.794,378.691z"/>
					<path style="fill:#3D3149;" d="M62.486,332.754c-4.756,33.113-6.799,68.506-25.065,87.858
						c-9.929,10.519-41.895,36.845-53.133,45.952c2.031,5.707,5.362,12.473,9.269,17.102c2.496-3.152,58.39-33.7,72.453-52.349
						c12.01-15.927,24.133-41.233,30.94-63.576c10.335,15.916,42.711,50.075,45.24,54.759c2.544,4.709-4.497,64.018-5.075,88.567
						c3.36,0.676,14.427,3.493,17.754,2.669c5.523-29.457,16.23-96.85,13.225-103.702c-1.176-2.682-30.814-50.299-41.641-71.535
						C112.855,340.285,63.223,327.618,62.486,332.754z"/>
				</g>
				<g>
					<path style="fill:#FEB788;" d="M218.098,199.335c0.498-4.347-1.056-6.437,0.261-11.096c0,0,0.456-0.902,2.218,1.687
						c1.11,2.764,0.005,4.896,1.176,6.799c1.164-1.43,2.91-4.463,3.786-5.875c0.711-1.146,4.257-10.835,6.077-9.227
						c0.32,1.263-2.652,7.73-3.744,12.186c0.822,0.722,7.85-13.403,9.536-11.527c1.316,1.257-6.386,11.57-5.127,12.863
						c3.529-2.534,8.793-9.779,9.576-9.126c0.885,0.663-4.348,9.213-6.266,11.357c1.042,0.717,6.266-5.222,6.919-4.961
						c1.305,0.653-3.338,6.657-5.493,7.572c-1.089,0.462-1.818,4.7-3.515,6.887c-1.069,1.378-3.103,2.051-3.706,3.688
						c-1.938,5.264-4.823,9.229-7.042,13.707c-0.371,0.749-8.649-4.488-9.747-6.266c0,0,6.651-8.574,7.049-11.129
						C220.642,203.113,217.706,202.754,218.098,199.335z"/>
					<path style="fill:#FEB788;" d="M-32.53,260.219c-3.906-1.971-4.799-4.418-9.416-5.877c0,0-1.004-0.114,0.191,2.78
						c1.7,2.445,4.089,2.693,5.035,4.717c-1.834,0.187-5.328-0.02-6.989-0.063c-1.348-0.035-11.393-2.394-11.048,0.01
						c0.88,0.961,7.916,2.03,12.239,3.565c0.152,1.083-15.511-0.802-14.87,1.637c0.327,1.79,13.176,1.019,13.565,2.782
						c-4.056,1.557-13.001,1.976-12.886,2.989c0.067,1.104,10.087,1.427,12.933,1.002c0.027,1.265-7.805,2.368-7.946,3.057
						c-0.172,1.449,7.396,0.867,9.344-0.431c0.984-0.656,4.926,1.063,7.685,0.846c1.739-0.137,3.419-1.467,5.117-1.071
						c5.464,1.272,10.361,1.039,15.323,1.644c0.83,0.101,1-9.692,0.118-11.587c0,0-10.818,0.849-13.172-0.222
						C-30.771,264.42-29.458,261.769-32.53,260.219z"/>
					<path style="fill:#55A2B6;" d="M59.483,336.367c-0.322,0.804,23.797,4.793,36.292,8.094c8.611,2.275,35.428,2.133,35.656,0.341
						c3.737-29.334,11.213-60.394,4.862-89.275c-0.337-1.531-0.73-3.116-1.734-4.319c-1.004-1.204-6.873-7.846-8.323-8.442
						c0,0-9.643,2.252-13.957,1.783c-4.573-0.497-9.224-5.87-15.41-5.984c-5.06-0.093-14.292,1.641-16.778,6.966
						c-1.444,3.093-0.113,8.424-0.082,11.789C80.236,281.73,68.502,313.808,59.483,336.367z"/>
					<path style="fill:#FFFFFF;" d="M69.666,240.793c-9.854,4.139-12.782,6.732-22.637,10.868
						c-9.826,4.124-21.363,9.229-30.235,10.467c-13.707,1.914-28.061,2.635-39.947,1.306c-2.35,4.308-2.942,11.528-0.522,17.363
						c9.933-1.094,20.178,1.733,31.853,0.653c19.034-1.762,38.002-5.193,53.394-10.531c-0.522,13.577-3.56,27.485-5.382,32.458
						c-2.198,5.996-5.936,11.283-9.632,16.491c-12.479,17.583-36.291,40.302-41.513,51.92c16.539,0.486,49.344,9.241,54.435,5.309
						c13.202-10.195,14.648-25.58,20.194-42.471c8.599-26.187,12.658-53.405,16.613-80.683c0.488-3.369,0.841-7.87,0.581-15.336
						C96.868,238.607,76.193,238.052,69.666,240.793z"/>
					<path style="fill:#FFFFFF;" d="M146.688,245.81c9.933,1.699,37.26,1.424,42.95-2.872c3.845-2.904,22.489-27.571,27.023-33.55
						c4.644,1.518,9.207,5.059,13.577,7.244c-5.867,11.008-23.809,35.939-32.829,44.555c-7.51,7.173-35.669,10.051-46.543,11.125
						c0.241,13.6-0.452,24.128-0.211,37.728c0.226,12.734,0.459,25.541,2.823,38.056c2.365,12.515,6.99,24.844,15.135,34.636
						c-16.397,10.527-35.153,8.019-53.252,0.8c8.801-19.806,7.582-32.327,8.999-53.954c0.775-11.836,0.734-26.624,0-40.034
						c-0.696-12.711-0.973-34.119,1.876-46.736C132.323,244.281,141.014,244.84,146.688,245.81z"/>
					<g>
						<path style="fill:#CAD6DD;" d="M62.866,269.257c3.711-3.315,6.139-8.884,7.677-13.538c0.177-0.534-0.545-0.73-0.835-0.352
							c-1.474,1.922-2.179,4.472-3.172,6.669c-1.096,2.427-2.392,4.701-4.328,6.563C61.773,269.017,62.422,269.654,62.866,269.257
							L62.866,269.257z"/>
					</g>
					<g>
						<path style="fill:#CAD6DD;" d="M63.663,271.139c3.582-0.415,6.706-2.193,8.588-5.307c0.173-0.286-0.253-0.636-0.474-0.366
							c-2.104,2.568-4.918,4.383-8.213,4.935C63.151,270.47,63.242,271.187,63.663,271.139L63.663,271.139z"/>
					</g>
					<g>
						<path style="fill:#CAD6DD;" d="M150.467,269.957c0.319-1.863-0.414-3.441-0.93-5.219c-0.666-2.3-1.056-4.651-1.625-6.972
							c-0.097-0.394-0.753-0.322-0.721,0.098c0.138,1.826,0.533,3.618,0.992,5.389c0.566,2.184,1.592,4.345,1.643,6.618
							C149.834,270.222,150.403,270.333,150.467,269.957L150.467,269.957z"/>
					</g>
					<g>
						<path style="fill:#CAD6DD;" d="M152.257,269.797c0.539-3.753,1.12-7.613,1.058-11.411c-0.008-0.475-0.661-0.445-0.718,0
							c-0.478,3.752-0.617,7.552-1.061,11.313C151.488,270.106,152.198,270.206,152.257,269.797L152.257,269.797z"/>
					</g>
					<g>
						<path style="fill:#4C94A5;" d="M102.165,267.761c2.416,5.731,7.109,11.722,13.222,13.764c0.571,0.191,0.87-0.635,0.396-0.94
							c-5.526-3.553-10.047-6.987-12.903-13.126C102.696,267.062,101.992,267.351,102.165,267.761L102.165,267.761z"/>
					</g>
					<g>
						<path style="fill:#4C94A5;" d="M99.782,287.061c2.978,7.638,7.456,14.963,13.685,20.386c0.457,0.398,1.088-0.22,0.669-0.669
							c-5.644-6.058-10.385-12.36-13.683-20C100.29,286.4,99.63,286.672,99.782,287.061L99.782,287.061z"/>
					</g>
					<g>
						<path style="fill:#4C94A5;" d="M97.752,310.999c1.359,2.217,3.735,3.546,5.905,4.869c2.772,1.69,5.573,3.115,8.622,4.223
							c0.485,0.176,0.812-0.601,0.352-0.835c-2.366-1.201-4.759-2.375-7.082-3.658c-2.394-1.322-5.464-2.735-7.036-5.044
							C98.197,310.091,97.452,310.51,97.752,310.999L97.752,310.999z"/>
					</g>
					<g>
						<path style="fill:#CAD6DD;" d="M189.834,247.221c0.669,2.927,1.171,6.036,2.37,8.798c0.181,0.417,0.913,0.213,0.867-0.235
							c-0.312-2.997-1.406-5.953-2.261-8.832C190.623,246.327,189.689,246.587,189.834,247.221L189.834,247.221z"/>
					</g>
					<g>
						<path style="fill:#CAD6DD;" d="M192.213,247.67c1.393,2.228,2.587,4.584,4.075,6.746c0.242,0.352,0.931,0.143,0.746-0.314
							c-1.003-2.473-2.498-4.709-3.961-6.934C192.723,246.636,191.871,247.123,192.213,247.67L192.213,247.67z"/>
					</g>
					<g>
						<path style="fill:#CAD6DD;" d="M16.264,265.762c-0.314,1.292-0.7,2.553-1.159,3.801c-0.449,1.221-1.202,2.415-1.408,3.699
							c-0.057,0.355,0.362,0.694,0.655,0.381c1.729-1.849,2.25-5.263,2.667-7.673C17.104,265.483,16.385,265.264,16.264,265.762
							L16.264,265.762z"/>
					</g>
					<g>
						<path style="fill:#CAD6DD;" d="M17.848,266.045c-0.08,1.562-0.138,3.125-0.159,4.689c-0.018,1.362-0.207,2.828,0.287,4.113
							c0.122,0.318,0.587,0.363,0.692,0c0.379-1.311,0.104-2.76,0.056-4.113c-0.056-1.563-0.078-3.125-0.076-4.689
							C18.649,265.528,17.875,265.534,17.848,266.045L17.848,266.045z"/>
					</g>
				</g>
				<g>
					<path style="fill:#EFA075;" d="M100.336,237.324c-0.308,0.547-3.467,1.282-3.467,1.282
						c0.458,2.244,10.285,16.628,17.183,19.518c3.309,1.386,10.244-8.908,12.184-15.318c-2.263-0.936-3.684-0.386-4.152-2.79
						c-0.468-2.404-0.135-4.883,0.196-7.309c-6.225,0.371-15.188-9.621-20.5-11.703
						C101.239,224.986,103.347,231.972,100.336,237.324z"/>
					<path style="fill:#FEB788;" d="M102.747,228.643c1.528,3.555,6.893,8.596,15.3,9.989c3.817,0.632,8.431-5.42,9.408-7.777
						c1.575-3.799,1.88-4.236,2.634-8.279c0.853-4.577,1.736-13.549,1.003-18.147c-0.733-4.598-2.889-6.404-8.028-7.474
						c-4.558-0.949-11.023-1.064-15.122,1.144C96.095,204.479,98.268,218.221,102.747,228.643z"/>
					<path style="fill:#592C64;" d="M103.641,215.551c0.395-1.079,0.893-8.434,1.538-9.384c2.194-3.234,15.631-3.218,20.646-2.007
						c3.247,0.784,6.078,1.341,8.279-0.3c1.85-1.379,2.031-3.563,2.009-5.87c-0.037-3.732-0.127-6.774-1.632-9.91
						c-3.799,3.898-9.924,1.767-12.92,1.631c-6.001-0.273-8.929-1.645-15.304,0.376c-5.143,1.631-5.411,5.119-6.265,5.394
						c-4.523,1.457-5.548,5.391-5.589,6.02c-0.228,3.486,0.073,15.352,3.038,17.048
						C102.709,221.562,102.895,217.592,103.641,215.551z"/>
					<path style="fill:#FEB788;" d="M103.307,216.072c0,0-0.754-2.916-1.586-3.77c-2.089-2.145-5.517-1.392-5.375,4.378
						c0.06,2.432,1.732,7.777,5.547,6.648C104.108,222.673,103.755,218.337,103.307,216.072z"/>
					<g>
						<path style="fill:#E5906A;" d="M119.151,213.251c-0.661,2.123,1.205,4.849,2.297,6.532c0.231,0.357,0.638,0.752,0.803,1.14
							c0.261,0.614,0.257,0.548-0.48,0.932c-0.849,0.443-2.277,0.538-2.883,1.313c-0.219,0.28-0.106,0.761,0.312,0.752
							c1.134-0.024,4.843-1.401,4.684-2.899c-0.101-0.952-1.339-2.192-1.81-2.983c-0.893-1.499-1.687-3.04-1.931-4.786
							C120.067,212.714,119.287,212.812,119.151,213.251L119.151,213.251z"/>
					</g>
					<g>
						<path style="fill:#592C64;" d="M112.943,212.732c-0.48,0.256-0.432,0.9-0.426,1.365c0.01,0.741-0.042,1.543,0.623,2.017
							c0.317,0.226,0.738,0.093,1.005-0.13C114.92,215.338,114.326,211.995,112.943,212.732L112.943,212.732z"/>
					</g>
					<g>
						<path style="fill:#592C64;" d="M123.747,212.732c-0.48,0.256-0.432,0.9-0.426,1.365c0.01,0.741-0.042,1.543,0.623,2.017
							c0.317,0.226,0.738,0.093,1.005-0.13C125.724,215.338,125.13,211.995,123.747,212.732L123.747,212.732z"/>
					</g>
					<g>
						<path style="fill:#592C64;" d="M108.898,209.292c1.42-1.574,3.432-2.1,5.483-1.709c0.744,0.142,1.064-0.936,0.317-1.149
							c-2.436-0.695-4.951,0.387-6.427,2.373C107.999,209.172,108.596,209.626,108.898,209.292L108.898,209.292z"/>
					</g>
					<g>
						<path style="fill:#592C64;" d="M121.94,207.537c1.167-0.996,4.052-0.159,5.006,0.801c0.551,0.555,1.319-0.26,0.842-0.842
							c-1.241-1.515-4.973-2.033-6.414-0.524C121.015,207.349,121.552,207.868,121.94,207.537L121.94,207.537z"/>
					</g>
					<g>
						<path style="fill:#592C64;" d="M123.185,227.463c0,0-0.512,1.535-1.495,2.98c-1.004,1.465-2.479,2.84-4.396,2.419
							c-1.686-0.371-2.699-1.576-3.291-2.92c-0.823-1.866-0.863-3.994-0.823-4.526C113.18,226.098,121.79,227.463,123.185,227.463z"
							/>
						<path style="fill:#CD575F;" d="M121.69,230.443c-1.004,1.465-2.479,2.84-4.396,2.419c-1.686-0.371-2.699-1.576-3.291-2.92
							C116.161,229.239,119.101,228.847,121.69,230.443z"/>
					</g>
					<g>
						<path style="fill:#6F3C7C;" d="M97.498,207.915c0.162-3.771,0.425-6.545,3.001-9.485c0.297-0.339-0.083-0.918-0.504-0.654
							c-3.196,2.006-3.706,6.74-3.296,10.138C96.759,208.414,97.475,208.442,97.498,207.915L97.498,207.915z"/>
					</g>
					<g>
						<path style="fill:#6F3C7C;" d="M100.863,208.436c-0.257-2.575,0.598-4.403,1.759-6.608c0.195-0.37-0.279-0.764-0.589-0.455
							c-1.802,1.796-2.203,4.75-1.843,7.154C100.247,208.906,100.902,208.821,100.863,208.436L100.863,208.436z"/>
					</g>
					<g>
						<path style="fill:#6F3C7C;" d="M105.72,202.448c1.654-1.497,3.498-2.317,5.491-3.242c0.438-0.204,0.115-0.837-0.314-0.746
							c-2.17,0.462-4.171,1.905-5.753,3.411C104.761,202.235,105.332,202.799,105.72,202.448L105.72,202.448z"/>
					</g>
					<g>
						<path style="fill:#6F3C7C;" d="M105.598,199.228c1.051-1.857,2.584-2.973,4.373-4.055c0.327-0.198,0.116-0.737-0.264-0.626
							c-2.109,0.613-3.786,2.384-4.813,4.269C104.642,199.277,105.338,199.686,105.598,199.228L105.598,199.228z"/>
					</g>
					<g>
						<path style="fill:#6F3C7C;" d="M104.533,196.257c0.713-1.406,1.846-2.227,3.176-3.002c0.354-0.206,0.118-0.755-0.277-0.656
							c-1.619,0.408-2.875,1.8-3.547,3.279C103.688,196.311,104.311,196.694,104.533,196.257L104.533,196.257z"/>
					</g>
					<g>
						<path style="fill:#6F3C7C;" d="M117.279,200.038c3.108-0.235,5.967,1.4,9.112,1.137c1.993-0.167,4.025-0.798,5.541-2.126
							c0.259-0.227-0.016-0.738-0.349-0.6c-2.434,1.002-4.648,2.001-7.368,1.788c-2.444-0.192-4.541-1.112-7.009-0.744
							C116.898,199.539,116.968,200.062,117.279,200.038L117.279,200.038z"/>
					</g>
					<g>
						<path style="fill:#6F3C7C;" d="M118.421,196.29c3.732,1.417,9.214,2.821,11.925-1.172c0.179-0.264-0.205-0.522-0.423-0.326
							c-3.408,3.065-7.352,2.359-11.402,1.137C118.286,195.857,118.199,196.206,118.421,196.29L118.421,196.29z"/>
					</g>
					<g>
						<path style="fill:#6F3C7C;" d="M117.848,192.617c2.436,1.251,5.608,1.982,8.243,0.921c0.347-0.14,0.353-0.763-0.098-0.721
							c-2.8,0.262-5.204,0.464-7.874-0.665C117.81,192.021,117.532,192.454,117.848,192.617L117.848,192.617z"/>
					</g>
					<g>
						<path style="fill:#E5906A;" d="M100.386,221.167c-0.92-1.262-1.768-2.476-2.034-4.062c-0.142-0.848-0.165-3.337,1.288-3.239
							c0.676,0.046,1.079,0.994,1.463,1.438c0.196,0.228,0.663,0.055,0.627-0.26c-0.258-2.21-3.016-2.857-4.005-0.797
							c-1.09,2.27,0.006,5.936,1.944,7.474C100.035,222.011,100.72,221.626,100.386,221.167L100.386,221.167z"/>
					</g>
				</g>
			</g>
			<g>
				<g>
					
						<rect x="253.133" y="176.601" transform="matrix(0.3611 -0.9325 0.9325 0.3611 -32.4456 373.8718)" style="fill:#592C64;" width="7" height="68.029"/>
				</g>
				<g>
					
						<rect x="265.521" y="127.712" transform="matrix(0.3838 -0.9234 0.9234 0.3838 0.713 358.5578)" style="fill:#FAC164;" width="7" height="102.066"/>
				</g>
				<g>
					
						<rect x="278.408" y="92.094" transform="matrix(0.3993 -0.9168 0.9168 0.3993 37.4183 344.895)" style="fill:#CD575F;" width="7" height="103.597"/>
				</g>
				<g>
					
						<rect x="287.934" y="75.238" transform="matrix(0.3983 -0.9173 0.9173 0.3983 74.8784 333.2363)" style="fill:#FAC164;" width="7" height="68.615"/>
				</g>
				<g>
					
						<rect x="319.402" y="5.954" transform="matrix(0.4361 -0.8999 0.8999 0.4361 148.5097 311.6318)" style="fill:#CD575F;" width="7" height="62.735"/>
				</g>
				<g>
					
						<rect x="333.448" y="-31.229" transform="matrix(0.4732 -0.881 0.881 0.4732 165.5707 303.9712)" style="fill:#FAC164;" width="7" height="89.547"/>
				</g>
				<g>
					
						<rect x="350.381" y="-63.461" transform="matrix(0.4396 -0.8982 0.8982 0.4396 208.7789 311.308)" style="fill:#592C64;" width="7" height="103.587"/>
				</g>
				<g>
					
						<rect x="229.406" y="252.74" transform="matrix(0.4238 -0.9058 0.9058 0.4238 -124.5854 375.5993)" style="fill:#FAC164;" width="7" height="65.952"/>
				</g>
				<g>
					
						<rect x="214.012" y="265.947" transform="matrix(0.3905 -0.9206 0.9206 0.3905 -156.6543 391.7104)" style="fill:#592C64;" width="6.999" height="96.441"/>
				</g>
				<g>
					
						<rect x="199.537" y="292.322" transform="matrix(0.4347 -0.9006 0.9006 0.4347 -193.7133 376.481)" style="fill:#FAC164;" width="7.001" height="100.45"/>
				</g>
				<g>
					
						<rect x="183.412" y="337.576" transform="matrix(0.4054 -0.9142 0.9142 0.4054 -232.438 394.3557)" style="fill:#CD575F;" width="7" height="76.541"/>
				</g>
				<g>
					
						<rect x="145.789" y="412.339" transform="matrix(0.3463 -0.9381 0.9381 0.3463 -317.726 429.4377)" style="fill:#FAC164;" width="6.999" height="60.741"/>
				</g>
				<g>
					
						<rect x="132.716" y="426.361" transform="matrix(0.3689 -0.9295 0.9295 0.3689 -353.7296 425.1576)" style="fill:#CD575F;" width="6.999" height="93.4"/>
				</g>
				<g>
					
						<rect x="118.991" y="452.086" transform="matrix(0.3518 -0.9361 0.9361 0.3518 -394.4185 442.7844)" style="fill:#FAC164;" width="7" height="108.17"/>
				</g>
				<g>
					<g>
						<path style="fill:#E97A93;" d="M68.891,515.667c2.321-22.443,14.758-43.212,30.168-59.197
							c17.684-18.343,40.246-31.258,64.797-37.875c20.899-5.633,41.723-10.862,59.827-23.337
							c23.53-16.214,42.141-41.198,45.201-70.125c2.717-25.68-6.951-50.512-17.965-73.171
							c-11.976-24.639-23.356-50.309-24.474-78.149c-0.589-14.661,1.956-29.315,8.918-42.326
							c6.015-11.242,14.582-20.758,24.289-28.942c15.347-12.938,32.725-22.034,51.371-29.055
							c17.639-6.642,35.28-13.41,51.484-23.165c20.26-12.196,37.566-28.568,50.7-48.247c3.974-5.954,7.511-12.169,10.74-18.555
							c2.896-5.73-5.728-10.798-8.635-5.047c-11.529,22.808-27.737,42.761-48.816,57.377
							c-16.157,11.203-34.136,18.952-52.451,25.859c-17.555,6.621-33.857,13.634-49.354,24.476
							c-21.099,14.76-39.426,34.625-45.668,60.241c-7.532,30.913,1.808,63.763,14.308,92.091
							c9.339,21.165,21.099,40.883,24.9,64.095c2.261,13.807,1.14,28.11-4.031,41.158c-5.7,14.383-16.169,26.987-27.865,36.945
							c-17.664,15.039-39.204,21.476-61.198,27.196c-46.035,11.971-90.154,44.784-103.403,92.327
							c-1.409,5.056-2.303,10.208-2.842,15.426C58.229,522.062,68.234,522.015,68.891,515.667L68.891,515.667z"/>
					</g>
				</g>
				<g>
					<g>
						<path style="fill:#55A1B6;" d="M308.589-46.857c-12.162,20.061-19.229,42.616-19.029,66.176
							c0.174,20.569,5.475,40.654,12.296,59.926c11.788,33.307,33.47,70.383,16.384,105.663
							c-20.462,42.25-71.415,56.494-109.395,77.663c-20.476,11.413-41.445,26.303-52.709,47.489
							c-11.183,21.035-11.4,46.024-7.359,68.975c2.366,13.44,6.476,26.41,11.585,39.042c5.783,14.299,11.891,28.423,13.767,43.873
							c3.471,28.59-1.919,58.837-14.871,84.526c-2.89,5.732,5.734,10.801,8.635,5.047c11.529-22.867,17.386-48.606,17.181-74.211
							c-0.102-12.795-1.773-25.65-5.743-37.838c-4.163-12.779-10.148-24.87-14.401-37.617c-7.541-22.602-11.856-48.072-5.898-71.551
							c6.091-24.001,24.988-40.903,45.337-53.515c38.563-23.901,86.631-35.913,114.743-74.046
							c11.6-15.735,17.567-35.487,15.208-54.989c-2.149-17.772-8.933-34.563-15.321-51.149
							c-7.966-20.682-16.134-41.816-18.623-63.999c-2.968-26.447,3.081-51.707,16.85-74.42
							C320.569-47.327,311.925-52.359,308.589-46.857L308.589-46.857z"/>
					</g>
				</g>
			</g>
			<g>
				<g>
					<path style="fill:#F8A577;" d="M176.309,150.45c-7.384-20.309-16.343-40.003-23.727-60.312
						c-0.702-1.931-3.795-1.054-3.086,0.896c7.384,20.309,16.343,40.003,23.727,60.312
						C173.925,153.277,177.019,152.4,176.309,150.45L176.309,150.45z"/>
				</g>
				<g>
					<path style="fill:#F8A577;" d="M152.594,90.992c6.459-16.907,12.917-33.814,19.376-50.722c0.738-1.932-2.38-2.723-3.11-0.812
						c-6.459,16.907-12.917,33.815-19.376,50.722C148.747,92.112,151.864,92.904,152.594,90.992L152.594,90.992z"/>
				</g>
				<g>
					<path style="fill:#F8A577;" d="M89.751,60.719c19.046,12.309,40.098,22.386,60.51,32.213c1.858,0.894,3.449-1.898,1.584-2.796
						c-20.412-9.827-41.464-19.904-60.51-32.213C89.593,56.797,88.021,59.601,89.751,60.719L89.751,60.719z"/>
				</g>
				<g>
					<path style="fill:#F8A577;" d="M85.045,139.893c2.992-25.858,5.193-51.823,7.143-77.779c0.155-2.061-3.059-2.005-3.213,0.044
						c-1.95,25.956-4.151,51.921-7.143,77.779C81.595,141.986,84.81,141.922,85.045,139.893L85.045,139.893z"/>
				</g>
				<g>
					<path style="fill:#F8A577;" d="M84.268,141.291c21.878-17.314,45.569-32.227,67.601-49.329c1.613-1.252-0.024-4.021-1.66-2.752
						c-22.031,17.102-45.723,32.015-67.601,49.329C81.01,139.805,82.646,142.575,84.268,141.291L84.268,141.291z"/>
				</g>
				<g>
					<path style="fill:#F8A577;" d="M83.033,141.47c17.48,2.303,34.928,4.838,52.41,7.122c12.956,1.693,26.244,3.985,39.345,3.912
						c2.068-0.011,2.026-3.224-0.044-3.213c-13.331,0.074-26.849-2.278-40.026-4.01c-16.968-2.231-33.907-4.686-50.874-6.921
						C81.818,138.094,80.987,141.201,83.033,141.47L83.033,141.47z"/>
				</g>
				<g>
					<path style="fill:#F8A577;" d="M82.04,139.124c-12.473,21.399-24.945,42.797-37.418,64.196
						c-1.044,1.791,1.755,3.37,2.796,1.583c12.473-21.398,24.945-42.797,37.418-64.195C85.88,138.916,83.081,137.337,82.04,139.124
						L82.04,139.124z"/>
				</g>
				<g>
					<path style="fill:#F8A577;" d="M91.039,57.908c-14.585-9.174-29.171-18.347-43.756-27.521c-1.756-1.104-3.33,1.698-1.584,2.796
						c14.585,9.174,29.171,18.347,43.756,27.521C91.211,61.808,92.785,59.006,91.039,57.908L91.039,57.908z"/>
				</g>
				<g>
					<path style="fill:#F8A577;" d="M151.061,92.192c23.19-0.983,46.38-1.967,69.569-2.95c2.062-0.087,2.027-3.3-0.044-3.213
						c-23.19,0.983-46.38,1.967-69.569,2.95C148.955,89.067,148.991,92.28,151.061,92.192L151.061,92.192z"/>
				</g>
				<g>
					<path style="fill:#F8A577;" d="M84.23,138.517c-16.465-8.955-33.858-16.055-50.323-25.011
						c-1.819-0.989-3.402,1.807-1.584,2.796c16.465,8.955,33.858,16.055,50.323,25.011C84.465,142.303,86.049,139.506,84.23,138.517
						L84.23,138.517z"/>
				</g>
				<path style="fill:#FAC164;" d="M102.745,61.97c0.082,6.013-4.726,10.954-10.739,11.037c-6.013,0.082-10.954-4.725-11.037-10.738
					c-0.082-6.013,4.725-10.954,10.738-11.037C97.721,51.149,102.663,55.957,102.745,61.97z"/>
				<path style="fill:#CD575F;" d="M56.908,203.962c0.082,6.013-4.725,10.954-10.739,11.037
					c-6.013,0.082-10.954-4.725-11.037-10.738c-0.082-6.013,4.725-10.954,10.738-11.037
					C51.884,193.141,56.825,197.949,56.908,203.962z"/>
				<path style="fill:#E97A93;" d="M161.927,90.437c0.082,6.013-4.725,10.954-10.739,11.037
					c-6.013,0.082-10.954-4.726-11.037-10.739c-0.082-6.013,4.726-10.954,10.739-11.037
					C156.903,79.616,161.845,84.424,161.927,90.437z"/>
				
					<ellipse transform="matrix(0.8342 -0.5514 0.5514 0.8342 -54.2365 121.3814)" style="fill:#FAC164;" cx="174.766" cy="150.898" rx="13.719" ry="13.719"/>
				
					<ellipse transform="matrix(0.1077 -0.9942 0.9942 0.1077 109.7162 297.5195)" style="fill:#55A1B6;" cx="220.609" cy="87.636" rx="13.719" ry="13.719"/>
				<path style="fill:#CD575F;" d="M60.209,31.598c0.104,7.576-5.954,13.802-13.53,13.906c-7.576,0.104-13.802-5.954-13.906-13.53
					c-0.104-7.576,5.954-13.802,13.53-13.906C53.88,17.964,60.105,24.022,60.209,31.598z"/>
				<path style="fill:#CD575F;" d="M178.154,39.758c0.059,4.274-3.359,7.787-7.633,7.845c-4.274,0.059-7.787-3.359-7.845-7.633
					s3.359-7.787,7.633-7.845C174.583,32.067,178.096,35.484,178.154,39.758z"/>
				<path style="fill:#E97A93;" d="M40.854,114.799c0.058,4.274-3.359,7.787-7.633,7.845c-4.274,0.058-7.787-3.359-7.845-7.633
					s3.359-7.787,7.633-7.845C37.283,107.107,40.796,110.525,40.854,114.799z"/>
				<path style="fill:#55A1B6;" d="M91.178,139.809c0.058,4.274-3.359,7.787-7.633,7.845c-4.274,0.059-7.787-3.359-7.845-7.633
					c-0.059-4.274,3.359-7.787,7.633-7.845S91.119,135.535,91.178,139.809z"/>
			</g>
			<g>
				<g>
					<path style="fill:#F8A577;" d="M385.559,352.305c-18.962,6.896-37.35,15.262-56.311,22.158c-1.8,0.655-1.023,3.555,0.797,2.893
						c18.962-6.896,37.35-15.262,56.311-22.159C388.157,354.543,387.379,351.643,385.559,352.305L385.559,352.305z"/>
				</g>
				<g>
					<path style="fill:#F8A577;" d="M330.045,374.464c-15.787-6.029-31.573-12.058-47.36-18.087
						c-1.805-0.689-2.586,2.21-0.798,2.893c15.787,6.029,31.573,12.058,47.36,18.087
						C331.053,378.046,331.834,375.147,330.045,374.464L330.045,374.464z"/>
				</g>
				<g>
					<path style="fill:#F8A577;" d="M301.754,433.155c11.492-17.784,20.898-37.441,30.073-56.5c0.834-1.732-1.752-3.255-2.59-1.514
						c-9.174,19.059-18.581,38.716-30.073,56.5C298.113,433.267,300.709,434.773,301.754,433.155L301.754,433.155z"/>
				</g>
				<g>
					<path style="fill:#F8A577;" d="M375.71,437.525c-24.144-2.792-48.387-4.845-72.622-6.663c-1.926-0.145-1.916,2.856,0,3
						c24.235,1.819,48.478,3.872,72.622,6.663C377.625,440.746,377.609,437.745,375.71,437.525L375.71,437.525z"/>
				</g>
				<g>
					<path style="fill:#F8A577;" d="M376.771,437.964c-16.168-20.425-30.094-42.546-46.064-63.115
						c-1.183-1.523-3.292,0.614-2.121,2.121c15.97,20.569,29.895,42.689,46.064,63.115
						C375.847,441.599,377.957,439.463,376.771,437.964L376.771,437.964z"/>
				</g>
				<g>
					<path style="fill:#F8A577;" d="M377.21,439.025c2.117-16.083,4.446-32.137,6.552-48.221
						c1.598-12.199,3.764-24.714,3.695-37.052c-0.011-1.93-3.011-1.934-3,0c0.07,12.339-2.097,24.853-3.695,37.052
						c-2.107,16.084-4.435,32.139-6.552,48.221C373.959,440.933,376.961,440.915,377.21,439.025L377.21,439.025z"/>
				</g>
				<g>
					<path style="fill:#F8A577;" d="M374.953,440.32c19.981,11.644,39.961,23.288,59.942,34.932c1.671,0.974,3.183-1.618,1.514-2.59
						c-19.981-11.644-39.961-23.288-59.942-34.932C374.796,436.756,373.284,439.348,374.953,440.32L374.953,440.32z"/>
				</g>
				<g>
					<path style="fill:#F8A577;" d="M299.15,431.917c-8.564,13.619-17.128,27.238-25.692,40.857
						c-1.031,1.639,1.564,3.146,2.59,1.514c8.564-13.619,17.128-27.238,25.692-40.857
						C302.771,431.792,300.176,430.284,299.15,431.917L299.15,431.917z"/>
				</g>
				<g>
					<path style="fill:#F8A577;" d="M331.146,375.91c-0.92-21.652-1.84-43.304-2.76-64.956c-0.082-1.923-3.082-1.934-3,0
						c0.92,21.652,1.84,43.304,2.76,64.956C328.228,377.833,331.228,377.844,331.146,375.91L331.146,375.91z"/>
				</g>
				<g>
					<path style="fill:#F8A577;" d="M374.415,438.268c-8.36,15.374-14.988,31.615-23.348,46.989
						c-0.923,1.697,1.667,3.213,2.59,1.514c8.36-15.374,14.988-31.615,23.348-46.989
						C377.928,438.086,375.339,436.569,374.415,438.268L374.415,438.268z"/>
				</g>
				<path style="fill:#CD575F;" d="M302.932,421.004c5.614-0.077,10.228,4.411,10.306,10.026
					c0.077,5.614-4.411,10.228-10.026,10.306c-5.614,0.077-10.228-4.411-10.306-10.026
					C292.829,425.696,297.317,421.082,302.932,421.004z"/>
				<path style="fill:#E97A93;" d="M435.512,463.792c5.614-0.077,10.228,4.411,10.306,10.026
					c0.077,5.614-4.411,10.228-10.026,10.306c-5.614,0.077-10.228-4.411-10.306-10.026
					C425.409,468.483,429.898,463.869,435.512,463.792z"/>
				<path style="fill:#E97A93;" d="M329.506,365.744c5.614-0.077,10.228,4.411,10.306,10.026
					c0.077,5.614-4.411,10.228-10.026,10.306c-5.614,0.077-10.228-4.411-10.306-10.026
					C319.403,370.436,323.892,365.822,329.506,365.744z"/>
				<path style="fill:#55A1B6;" d="M385.781,340.943c7.074-0.098,12.887,5.558,12.985,12.632
					c0.097,7.074-5.558,12.887-12.632,12.985c-7.074,0.098-12.887-5.558-12.985-12.632
					C373.052,346.854,378.707,341.041,385.781,340.943z"/>
				<path style="fill:#FAC164;" d="M326.71,298.145c7.074-0.097,12.887,5.558,12.985,12.632c0.097,7.074-5.558,12.887-12.632,12.985
					c-7.074,0.097-12.887-5.558-12.985-12.632C313.981,304.056,319.636,298.243,326.71,298.145z"/>
				
					<ellipse transform="matrix(0.3912 -0.9203 0.9203 0.3912 -268.527 541.1133)" style="fill:#FAC164;" cx="274.753" cy="473.531" rx="12.81" ry="12.81"/>
				<path style="fill:#CD575F;" d="M282.187,350.597c3.991-0.055,7.271,3.136,7.326,7.127c0.055,3.991-3.136,7.271-7.127,7.326
					c-3.991,0.055-7.271-3.136-7.326-7.127S278.196,350.652,282.187,350.597z"/>
				<path style="fill:#55A1B6;" d="M352.262,478.787c3.991-0.055,7.271,3.136,7.326,7.127c0.055,3.991-3.136,7.271-7.127,7.326
					c-3.991,0.055-7.271-3.136-7.326-7.127C345.081,482.122,348.271,478.842,352.262,478.787z"/>
				<path style="fill:#FAC164;" d="M375.611,431.799c3.991-0.055,7.271,3.136,7.326,7.127c0.055,3.991-3.136,7.271-7.127,7.326
					s-7.271-3.136-7.326-7.127C368.429,435.134,371.62,431.854,375.611,431.799z"/>
			</g>
			<g>
				<g>
					<path style="fill:#F8A577;" d="M547.746,93.395c-0.056-20.177-1.689-40.312-1.745-60.489c-0.005-1.93-3.005-1.934-3,0
						c0.056,20.177,1.689,40.312,1.745,60.489C544.752,95.325,547.752,95.329,547.746,93.395L547.746,93.395z"/>
				</g>
				<g>
					<path style="fill:#F8A577;" d="M545.561,33.966C556.587,21.16,567.614,8.354,578.64-4.452c1.254-1.456-0.859-3.587-2.121-2.121
						c-11.026,12.806-22.052,25.612-33.078,38.418C542.186,33.301,544.299,35.433,545.561,33.966L545.561,33.966z"/>
				</g>
				<g>
					<path style="fill:#F8A577;" d="M499.966-12.954c12.913,16.948,28.274,32.567,43.185,47.757c1.355,1.38,3.476-0.742,2.121-2.121
						c-14.724-14.999-29.965-30.414-42.716-47.15C501.401-15.983,498.795-14.491,499.966-12.954L499.966-12.954z"/>
				</g>
				<g>
					<path style="fill:#F8A577;" d="M470.798,55.589c10.815-21.766,20.969-43.875,30.9-66.057c0.782-1.748-1.802-3.275-2.59-1.514
						c-9.931,22.182-20.085,44.292-30.9,66.057C467.352,55.799,469.938,57.32,470.798,55.589L470.798,55.589z"/>
				</g>
				<g>
					<path style="fill:#F8A577;" d="M469.902,56.278c24.699-8.282,50.231-13.88,74.997-21.926c1.828-0.594,1.046-3.492-0.798-2.893
						c-24.767,8.047-50.298,13.644-74.997,21.926C467.283,53.996,468.064,56.895,469.902,56.278L469.902,56.278z"/>
				</g>
				<g>
					<path style="fill:#F8A577;" d="M468.746,56.127c14.625,7.557,29.148,15.308,43.781,22.85
						c10.844,5.589,21.788,11.779,33.32,15.864c1.823,0.646,2.608-2.252,0.797-2.893c-11.729-4.154-22.864-10.531-33.889-16.225
						c-14.198-7.332-28.299-14.851-42.496-22.187C468.548,52.652,467.029,55.24,468.746,56.127L468.746,56.127z"/>
				</g>
				<g>
					<path style="fill:#F8A577;" d="M468.443,53.771c-17.731,14.847-35.462,29.694-53.192,44.541
						c-1.482,1.241,0.65,3.353,2.121,2.121c17.731-14.847,35.462-29.694,53.193-44.541
						C472.046,54.652,469.914,52.539,468.443,53.771L468.443,53.771z"/>
				</g>
				<g>
					<path style="fill:#F8A577;" d="M502.067-14.878c-9.907-12.676-19.814-25.352-29.721-38.027
						c-1.188-1.52-3.297,0.617-2.121,2.121c9.907,12.676,19.814,25.351,29.721,38.027C501.133-11.237,503.243-13.373,502.067-14.878
						L502.067-14.878z"/>
				</g>
				<g>
					<path style="fill:#F8A577;" d="M544.102,34.352c20.681,6.478,41.361,12.957,62.042,19.435c1.847,0.579,2.637-2.317,0.798-2.893
						c-20.681-6.479-41.361-12.957-62.042-19.435C543.053,30.881,542.263,33.776,544.102,34.352L544.102,34.352z"/>
				</g>
				<g>
					<path style="fill:#F8A577;" d="M470.564,53.771c-11.627-13.079-24.657-24.823-36.284-37.902
						c-1.285-1.446-3.401,0.682-2.121,2.121c11.627,13.079,24.657,24.823,36.284,37.902
						C469.728,57.339,471.843,55.211,470.564,53.771L470.564,53.771z"/>
				</g>
				<path style="fill:#CD575F;" d="M511.14-7.52c-1.832,5.308-7.619,8.126-12.927,6.294c-5.308-1.831-8.126-7.619-6.294-12.927
					c1.831-5.308,7.619-8.126,12.927-6.294C510.154-18.616,512.972-12.828,511.14-7.52z"/>
				
					<ellipse transform="matrix(0.1097 -0.994 0.994 0.1097 271.8513 502.2637)" style="fill:#E97A93;" cx="416.311" cy="99.373" rx="10.167" ry="10.167"/>
				
					<ellipse transform="matrix(0.8962 -0.4437 0.4437 0.8962 41.924 244.9919)" style="fill:#E97A93;" cx="544.501" cy="32.906" rx="10.167" ry="10.167"/>
				
					<ellipse transform="matrix(0.9004 -0.4351 0.4351 0.9004 13.7808 246.9788)" style="fill:#55A1B6;" cx="546.246" cy="93.395" rx="12.809" ry="12.81"/>
				
					<ellipse transform="matrix(0.5899 -0.8075 0.8075 0.5899 206.4917 511.245)" style="fill:#FAC164;" cx="606.543" cy="52.341" rx="12.809" ry="12.81"/>
				
					<ellipse transform="matrix(0.5136 -0.858 0.858 0.5136 273.694 379.1491)" style="fill:#FAC164;" cx="471.285" cy="-51.844" rx="12.81" ry="12.81"/>
				<path style="fill:#CD575F;" d="M584.411-3.155c-1.302,3.773-5.416,5.776-9.189,4.474c-3.773-1.302-5.776-5.416-4.474-9.189
					c1.302-3.773,5.416-5.776,9.189-4.474S585.713-6.928,584.411-3.155z"/>
				<path style="fill:#55A1B6;" d="M440.051,19.288c-1.302,3.773-5.416,5.776-9.189,4.474c-3.773-1.302-5.776-5.416-4.474-9.189
					c1.302-3.773,5.416-5.776,9.189-4.474C439.349,11.401,441.353,15.515,440.051,19.288z"/>
				
					<ellipse transform="matrix(0.8213 -0.5705 0.5705 0.8213 52.6089 277.6302)" style="fill:#FAC164;" cx="469.503" cy="54.832" rx="7.227" ry="7.227"/>
			</g>
		</g>
	</g>
</g>
</svg>
